<svg width="1839" height="771" viewBox="0 0 1839 771" fill="none" xmlns="http://www.w3.org/2000/svg">
<rect x="29" y="61" width="98" height="58" rx="4" fill="#DEE7EE" stroke="#B8C5D0" stroke-width="2"/>
<path d="M49.6852 94H48.0738V86.1797H49.6852V94ZM52.6937 88.1885L52.742 88.8599C53.1574 88.3407 53.7142 88.0811 54.4124 88.0811C55.0283 88.0811 55.4867 88.2619 55.7874 88.6235C56.0882 88.9852 56.2422 89.5259 56.2493 90.2456V94H54.6971V90.2832C54.6971 89.9538 54.6255 89.7157 54.4823 89.5688C54.339 89.4185 54.1009 89.3433 53.7679 89.3433C53.3311 89.3433 53.0034 89.5295 52.785 89.9019V94H51.2327V88.1885H52.6937ZM59.4727 86.7598V88.1885H60.4664V89.3271H59.4727V92.2275C59.4727 92.4424 59.5139 92.5964 59.5963 92.6895C59.6786 92.7826 59.8362 92.8291 60.0689 92.8291C60.2408 92.8291 60.393 92.8166 60.5255 92.7915V93.9678C60.2211 94.0609 59.9078 94.1074 59.5855 94.1074C58.497 94.1074 57.942 93.5578 57.9205 92.4585V89.3271H57.0718V88.1885H57.9205V86.7598H59.4727ZM64.7801 89.644C64.5688 89.6154 64.3826 89.6011 64.2215 89.6011C63.6342 89.6011 63.2493 89.7998 63.0667 90.1973V94H61.5145V88.1885H62.9808L63.0237 88.8813C63.3353 88.3478 63.7667 88.0811 64.3182 88.0811C64.49 88.0811 64.6512 88.1043 64.8016 88.1509L64.7801 89.644ZM65.2803 91.0405C65.2803 90.464 65.3913 89.9502 65.6133 89.499C65.8353 89.0479 66.154 88.6987 66.5694 88.4517C66.9883 88.2046 67.4735 88.0811 68.0249 88.0811C68.8091 88.0811 69.4483 88.321 69.9424 88.8008C70.4401 89.2806 70.7176 89.9323 70.7749 90.7559L70.7857 91.1533C70.7857 92.0449 70.5368 92.7611 70.0391 93.3018C69.5414 93.8389 68.8736 94.1074 68.0357 94.1074C67.1978 94.1074 66.5282 93.8389 66.0269 93.3018C65.5292 92.7646 65.2803 92.0342 65.2803 91.1104V91.0405ZM66.8326 91.1533C66.8326 91.7048 66.9364 92.1273 67.1441 92.4209C67.3518 92.7109 67.649 92.856 68.0357 92.856C68.4117 92.856 68.7053 92.7127 68.9165 92.4263C69.1278 92.1362 69.2334 91.6743 69.2334 91.0405C69.2334 90.4998 69.1278 90.0809 68.9165 89.7837C68.7053 89.4865 68.4081 89.3379 68.0249 89.3379C67.6454 89.3379 67.3518 89.4865 67.1441 89.7837C66.9364 90.0773 66.8326 90.5339 66.8326 91.1533ZM71.6834 91.0513C71.6834 90.1453 71.8857 89.4238 72.2903 88.8867C72.6985 88.3496 73.2553 88.0811 73.9607 88.0811C74.5265 88.0811 74.9938 88.2923 75.3626 88.7148V85.75H76.9202V94H75.5183L75.4431 93.3823C75.0564 93.8657 74.5587 94.1074 73.95 94.1074C73.266 94.1074 72.7164 93.8389 72.301 93.3018C71.8893 92.7611 71.6834 92.0109 71.6834 91.0513ZM73.2356 91.1641C73.2356 91.7083 73.3305 92.1255 73.5203 92.4155C73.7101 92.7056 73.9858 92.8506 74.3474 92.8506C74.8272 92.8506 75.1656 92.6483 75.3626 92.2437V89.9502C75.1692 89.5456 74.8344 89.3433 74.3582 89.3433C73.6098 89.3433 73.2356 89.9502 73.2356 91.1641ZM81.7871 93.4092C81.404 93.8747 80.874 94.1074 80.1973 94.1074C79.5742 94.1074 79.098 93.9284 78.7686 93.5703C78.4427 93.2122 78.2762 92.6877 78.269 91.9966V88.1885H79.8213V91.9429C79.8213 92.548 80.097 92.8506 80.6484 92.8506C81.1748 92.8506 81.5365 92.668 81.7334 92.3027V88.1885H83.291V94H81.8301L81.7871 93.4092ZM87.0622 92.856C87.3487 92.856 87.5814 92.7772 87.7605 92.6196C87.9395 92.4621 88.0326 92.2526 88.0398 91.9912H89.4953C89.4918 92.3851 89.3843 92.7467 89.1731 93.0762C88.9618 93.402 88.6718 93.6562 88.303 93.8389C87.9377 94.0179 87.5331 94.1074 87.0891 94.1074C86.2584 94.1074 85.6031 93.8442 85.1233 93.3179C84.6435 92.7879 84.4035 92.0575 84.4035 91.1265V91.0244C84.4035 90.1292 84.6417 89.4149 85.1179 88.8813C85.5941 88.3478 86.2476 88.0811 87.0784 88.0811C87.8052 88.0811 88.3871 88.2887 88.824 88.7041C89.2644 89.1159 89.4882 89.6655 89.4953 90.353H88.0398C88.0326 90.0522 87.9395 89.8088 87.7605 89.6226C87.5814 89.4328 87.3451 89.3379 87.0515 89.3379C86.6898 89.3379 86.4159 89.4704 86.2297 89.7354C86.0471 89.9967 85.9558 90.4229 85.9558 91.0137V91.1748C85.9558 91.7728 86.0471 92.2025 86.2297 92.4639C86.4123 92.7253 86.6898 92.856 87.0622 92.856ZM92.4233 86.7598V88.1885H93.417V89.3271H92.4233V92.2275C92.4233 92.4424 92.4645 92.5964 92.5468 92.6895C92.6292 92.7826 92.7868 92.8291 93.0195 92.8291C93.1914 92.8291 93.3436 92.8166 93.476 92.7915V93.9678C93.1717 94.0609 92.8584 94.1074 92.5361 94.1074C91.4476 94.1074 90.8925 93.5578 90.8711 92.4585V89.3271H90.0224V88.1885H90.8711V86.7598H92.4233ZM96.1032 94H94.5456V88.1885H96.1032V94ZM94.4543 86.6846C94.4543 86.4518 94.5313 86.2603 94.6853 86.1099C94.8428 85.9595 95.0559 85.8843 95.3244 85.8843C95.5894 85.8843 95.8007 85.9595 95.9582 86.1099C96.1158 86.2603 96.1945 86.4518 96.1945 86.6846C96.1945 86.9209 96.114 87.1143 95.9528 87.2646C95.7953 87.415 95.5858 87.4902 95.3244 87.4902C95.063 87.4902 94.8518 87.415 94.6906 87.2646C94.5331 87.1143 94.4543 86.9209 94.4543 86.6846ZM97.3286 91.0405C97.3286 90.464 97.4396 89.9502 97.6616 89.499C97.8836 89.0479 98.2023 88.6987 98.6176 88.4517C99.0366 88.2046 99.5217 88.0811 100.073 88.0811C100.857 88.0811 101.497 88.321 101.991 88.8008C102.488 89.2806 102.766 89.9323 102.823 90.7559L102.834 91.1533C102.834 92.0449 102.585 92.7611 102.087 93.3018C101.59 93.8389 100.922 94.1074 100.084 94.1074C99.246 94.1074 98.5764 93.8389 98.0751 93.3018C97.5774 92.7646 97.3286 92.0342 97.3286 91.1104V91.0405ZM98.8808 91.1533C98.8808 91.7048 98.9846 92.1273 99.1923 92.4209C99.4 92.7109 99.6972 92.856 100.084 92.856C100.46 92.856 100.754 92.7127 100.965 92.4263C101.176 92.1362 101.282 91.6743 101.282 91.0405C101.282 90.4998 101.176 90.0809 100.965 89.7837C100.754 89.4865 100.456 89.3379 100.073 89.3379C99.6936 89.3379 99.4 89.4865 99.1923 89.7837C98.9846 90.0773 98.8808 90.5339 98.8808 91.1533ZM105.402 88.1885L105.45 88.8599C105.866 88.3407 106.423 88.0811 107.121 88.0811C107.737 88.0811 108.195 88.2619 108.496 88.6235C108.797 88.9852 108.951 89.5259 108.958 90.2456V94H107.405V90.2832C107.405 89.9538 107.334 89.7157 107.191 89.5688C107.047 89.4185 106.809 89.3433 106.476 89.3433C106.039 89.3433 105.712 89.5295 105.493 89.9019V94H103.941V88.1885H105.402Z" fill="#89969F"/>
<rect x="271" y="61" width="98" height="58" rx="4" fill="#DEE7EE" stroke="#B8C5D0" stroke-width="2"/>
<path d="M303.267 91.7441L304.319 86.1797H305.925L304.19 94H302.568L301.295 88.7686L300.022 94H298.4L296.665 86.1797H298.271L299.33 91.7334L300.619 86.1797H301.983L303.267 91.7441ZM309.385 94.1074C308.533 94.1074 307.838 93.846 307.301 93.3232C306.767 92.8005 306.501 92.104 306.501 91.2339V91.0835C306.501 90.4998 306.613 89.9788 306.839 89.5205C307.065 89.0586 307.383 88.7041 307.795 88.457C308.21 88.2064 308.683 88.0811 309.213 88.0811C310.008 88.0811 310.633 88.3317 311.088 88.833C311.546 89.3343 311.775 90.0451 311.775 90.9653V91.5991H308.074C308.125 91.9787 308.275 92.283 308.526 92.5122C308.78 92.7414 309.1 92.856 309.487 92.856C310.085 92.856 310.552 92.6393 310.889 92.2061L311.652 93.0601C311.419 93.3895 311.104 93.6473 310.706 93.8335C310.309 94.0161 309.868 94.1074 309.385 94.1074ZM309.208 89.3379C308.9 89.3379 308.649 89.4417 308.456 89.6494C308.266 89.8571 308.144 90.1543 308.09 90.541H310.25V90.4175C310.243 90.0737 310.149 89.8088 309.97 89.6226C309.791 89.4328 309.537 89.3379 309.208 89.3379ZM314.483 94H312.925V85.75H314.483V94ZM318.367 92.856C318.653 92.856 318.886 92.7772 319.065 92.6196C319.244 92.4621 319.337 92.2526 319.344 91.9912H320.8C320.796 92.3851 320.689 92.7467 320.478 93.0762C320.266 93.402 319.976 93.6562 319.608 93.8389C319.242 94.0179 318.838 94.1074 318.394 94.1074C317.563 94.1074 316.908 93.8442 316.428 93.3179C315.948 92.7879 315.708 92.0575 315.708 91.1265V91.0244C315.708 90.1292 315.946 89.4149 316.422 88.8813C316.899 88.3478 317.552 88.0811 318.383 88.0811C319.11 88.0811 319.692 88.2887 320.129 88.7041C320.569 89.1159 320.793 89.6655 320.8 90.353H319.344C319.337 90.0522 319.244 89.8088 319.065 89.6226C318.886 89.4328 318.65 89.3379 318.356 89.3379C317.994 89.3379 317.721 89.4704 317.534 89.7354C317.352 89.9967 317.26 90.4229 317.26 91.0137V91.1748C317.26 91.7728 317.352 92.2025 317.534 92.4639C317.717 92.7253 317.994 92.856 318.367 92.856ZM321.628 91.0405C321.628 90.464 321.739 89.9502 321.961 89.499C322.183 89.0479 322.501 88.6987 322.917 88.4517C323.336 88.2046 323.821 88.0811 324.372 88.0811C325.157 88.0811 325.796 88.321 326.29 88.8008C326.788 89.2806 327.065 89.9323 327.122 90.7559L327.133 91.1533C327.133 92.0449 326.884 92.7611 326.387 93.3018C325.889 93.8389 325.221 94.1074 324.383 94.1074C323.545 94.1074 322.876 93.8389 322.374 93.3018C321.877 92.7646 321.628 92.0342 321.628 91.1104V91.0405ZM323.18 91.1533C323.18 91.7048 323.284 92.1273 323.492 92.4209C323.699 92.7109 323.996 92.856 324.383 92.856C324.759 92.856 325.053 92.7127 325.264 92.4263C325.475 92.1362 325.581 91.6743 325.581 91.0405C325.581 90.4998 325.475 90.0809 325.264 89.7837C325.053 89.4865 324.756 89.3379 324.372 89.3379C323.993 89.3379 323.699 89.4865 323.492 89.7837C323.284 90.0773 323.18 90.5339 323.18 91.1533ZM329.728 88.1885L329.776 88.8384C330.188 88.3335 330.745 88.0811 331.447 88.0811C332.195 88.0811 332.709 88.3765 332.988 88.9673C333.397 88.3765 333.978 88.0811 334.734 88.0811C335.364 88.0811 335.833 88.2655 336.141 88.6343C336.449 88.9995 336.603 89.5509 336.603 90.2886V94H335.046V90.2939C335.046 89.9645 334.981 89.7246 334.852 89.5742C334.723 89.4202 334.496 89.3433 334.17 89.3433C333.705 89.3433 333.382 89.5653 333.203 90.0093L333.209 94H331.656V90.2993C331.656 89.9627 331.59 89.7192 331.458 89.5688C331.325 89.4185 331.1 89.3433 330.781 89.3433C330.34 89.3433 330.022 89.5259 329.825 89.8911V94H328.273V88.1885H329.728ZM340.659 94.1074C339.807 94.1074 339.112 93.846 338.575 93.3232C338.042 92.8005 337.775 92.104 337.775 91.2339V91.0835C337.775 90.4998 337.888 89.9788 338.113 89.5205C338.339 89.0586 338.657 88.7041 339.069 88.457C339.485 88.2064 339.957 88.0811 340.487 88.0811C341.282 88.0811 341.907 88.3317 342.362 88.833C342.82 89.3343 343.049 90.0451 343.049 90.9653V91.5991H339.348C339.399 91.9787 339.549 92.283 339.8 92.5122C340.054 92.7414 340.374 92.856 340.761 92.856C341.359 92.856 341.826 92.6393 342.163 92.2061L342.926 93.0601C342.693 93.3895 342.378 93.6473 341.98 93.8335C341.583 94.0161 341.142 94.1074 340.659 94.1074ZM340.482 89.3379C340.174 89.3379 339.923 89.4417 339.73 89.6494C339.54 89.8571 339.418 90.1543 339.365 90.541H341.524V90.4175C341.517 90.0737 341.424 89.8088 341.244 89.6226C341.065 89.4328 340.811 89.3379 340.482 89.3379Z" fill="#89969F"/>
<rect x="514" y="1" width="98" height="58" rx="4" fill="#DEE7EE" stroke="#B8C5D0" stroke-width="2"/>
<path d="M551.574 32.7056H554.996V34H549.963V26.1797H551.574V32.7056ZM555.765 31.0405C555.765 30.464 555.876 29.9502 556.098 29.499C556.32 29.0479 556.638 28.6987 557.054 28.4517C557.473 28.2046 557.958 28.0811 558.509 28.0811C559.293 28.0811 559.933 28.321 560.427 28.8008C560.924 29.2806 561.202 29.9323 561.259 30.7559L561.27 31.1533C561.27 32.0449 561.021 32.7611 560.523 33.3018C560.026 33.8389 559.358 34.1074 558.52 34.1074C557.682 34.1074 557.012 33.8389 556.511 33.3018C556.013 32.7646 555.765 32.0342 555.765 31.1104V31.0405ZM557.317 31.1533C557.317 31.7048 557.421 32.1273 557.628 32.4209C557.836 32.7109 558.133 32.856 558.52 32.856C558.896 32.856 559.19 32.7127 559.401 32.4263C559.612 32.1362 559.718 31.6743 559.718 31.0405C559.718 30.4998 559.612 30.0809 559.401 29.7837C559.19 29.4865 558.892 29.3379 558.509 29.3379C558.13 29.3379 557.836 29.4865 557.628 29.7837C557.421 30.0773 557.317 30.5339 557.317 31.1533ZM562.184 31.0513C562.184 30.1597 562.395 29.4417 562.818 28.8975C563.244 28.3532 563.817 28.0811 564.536 28.0811C565.174 28.0811 565.67 28.2995 566.024 28.7363L566.089 28.1885H567.496V33.8066C567.496 34.3151 567.379 34.7573 567.147 35.1333C566.917 35.5093 566.593 35.7957 566.174 35.9927C565.756 36.1896 565.265 36.2881 564.703 36.2881C564.277 36.2881 563.861 36.2021 563.457 36.0303C563.052 35.862 562.746 35.6436 562.538 35.375L563.226 34.4297C563.612 34.863 564.082 35.0796 564.633 35.0796C565.045 35.0796 565.365 34.9686 565.594 34.7466C565.824 34.5282 565.938 34.2166 565.938 33.812V33.5005C565.58 33.9051 565.109 34.1074 564.526 34.1074C563.827 34.1074 563.262 33.8353 562.828 33.291C562.399 32.7432 562.184 32.0181 562.184 31.1157V31.0513ZM563.736 31.1641C563.736 31.6904 563.842 32.104 564.053 32.4048C564.264 32.702 564.554 32.8506 564.923 32.8506C565.396 32.8506 565.734 32.6733 565.938 32.3188V29.875C565.73 29.5205 565.396 29.3433 564.934 29.3433C564.561 29.3433 564.268 29.4954 564.053 29.7998C563.842 30.1042 563.736 30.5589 563.736 31.1641ZM570.515 34H568.957V28.1885H570.515V34ZM568.866 26.6846C568.866 26.4518 568.943 26.2603 569.097 26.1099C569.255 25.9595 569.468 25.8843 569.736 25.8843C570.001 25.8843 570.212 25.9595 570.37 26.1099C570.528 26.2603 570.606 26.4518 570.606 26.6846C570.606 26.9209 570.526 27.1143 570.365 27.2646C570.207 27.415 569.998 27.4902 569.736 27.4902C569.475 27.4902 569.264 27.415 569.102 27.2646C568.945 27.1143 568.866 26.9209 568.866 26.6846ZM573.411 28.1885L573.459 28.8599C573.874 28.3407 574.431 28.0811 575.129 28.0811C575.745 28.0811 576.204 28.2619 576.504 28.6235C576.805 28.9852 576.959 29.5259 576.966 30.2456V34H575.414V30.2832C575.414 29.9538 575.343 29.7157 575.199 29.5688C575.056 29.4185 574.818 29.3433 574.485 29.3433C574.048 29.3433 573.72 29.5295 573.502 29.9019V34H571.95V28.1885H573.411Z" fill="#89969F"/>
<rect x="756" y="63" width="98" height="58" rx="4" fill="#DEE7EE" stroke="#B8C5D0" stroke-width="2"/>
<path d="M785.656 94.7056H789.078V96H784.045V88.1797H785.656V94.7056ZM789.846 93.0405C789.846 92.464 789.957 91.9502 790.179 91.499C790.401 91.0479 790.72 90.6987 791.136 90.4517C791.554 90.2046 792.04 90.0811 792.591 90.0811C793.375 90.0811 794.014 90.321 794.509 90.8008C795.006 91.2806 795.284 91.9323 795.341 92.7559L795.352 93.1533C795.352 94.0449 795.103 94.7611 794.605 95.3018C794.108 95.8389 793.44 96.1074 792.602 96.1074C791.764 96.1074 791.094 95.8389 790.593 95.3018C790.095 94.7646 789.846 94.0342 789.846 93.1104V93.0405ZM791.399 93.1533C791.399 93.7048 791.503 94.1273 791.71 94.4209C791.918 94.7109 792.215 94.856 792.602 94.856C792.978 94.856 793.271 94.7127 793.483 94.4263C793.694 94.1362 793.8 93.6743 793.8 93.0405C793.8 92.4998 793.694 92.0809 793.483 91.7837C793.271 91.4865 792.974 91.3379 792.591 91.3379C792.212 91.3379 791.918 91.4865 791.71 91.7837C791.503 92.0773 791.399 92.5339 791.399 93.1533ZM798.908 94.856C799.195 94.856 799.427 94.7772 799.606 94.6196C799.786 94.4621 799.879 94.2526 799.886 93.9912H801.341C801.338 94.3851 801.23 94.7467 801.019 95.0762C800.808 95.402 800.518 95.6562 800.149 95.8389C799.784 96.0179 799.379 96.1074 798.935 96.1074C798.104 96.1074 797.449 95.8442 796.969 95.3179C796.489 94.7879 796.25 94.0575 796.25 93.1265V93.0244C796.25 92.1292 796.488 91.4149 796.964 90.8813C797.44 90.3478 798.094 90.0811 798.924 90.0811C799.651 90.0811 800.233 90.2887 800.67 90.7041C801.11 91.1159 801.334 91.6655 801.341 92.353H799.886C799.879 92.0522 799.786 91.8088 799.606 91.6226C799.427 91.4328 799.191 91.3379 798.897 91.3379C798.536 91.3379 798.262 91.4704 798.076 91.7354C797.893 91.9967 797.802 92.4229 797.802 93.0137V93.1748C797.802 93.7728 797.893 94.2025 798.076 94.4639C798.258 94.7253 798.536 94.856 798.908 94.856ZM805.779 96C805.707 95.8604 805.655 95.6867 805.623 95.479C805.247 95.8979 804.758 96.1074 804.157 96.1074C803.587 96.1074 803.115 95.9427 802.739 95.6133C802.366 95.2839 802.18 94.8685 802.18 94.3672C802.18 93.7513 802.407 93.2786 802.862 92.9492C803.32 92.6198 803.981 92.4533 804.844 92.4497H805.558V92.1167C805.558 91.8481 805.489 91.6333 805.349 91.4722C805.213 91.311 804.996 91.2305 804.699 91.2305C804.438 91.2305 804.232 91.2931 804.081 91.4185C803.935 91.5438 803.861 91.7157 803.861 91.9341H802.309C802.309 91.5975 802.413 91.286 802.62 90.9995C802.828 90.7131 803.122 90.4893 803.501 90.3281C803.881 90.1634 804.307 90.0811 804.78 90.0811C805.496 90.0811 806.063 90.2619 806.482 90.6235C806.905 90.9816 807.116 91.4865 807.116 92.1382V94.6572C807.12 95.2087 807.197 95.6258 807.347 95.9087V96H805.779ZM804.495 94.9204C804.724 94.9204 804.935 94.8703 805.129 94.77C805.322 94.6662 805.465 94.5283 805.558 94.3564V93.3574H804.978C804.201 93.3574 803.788 93.626 803.738 94.1631L803.732 94.2544C803.732 94.4478 803.8 94.6071 803.936 94.7324C804.072 94.8577 804.259 94.9204 804.495 94.9204ZM810.35 88.7598V90.1885H811.344V91.3271H810.35V94.2275C810.35 94.4424 810.391 94.5964 810.474 94.6895C810.556 94.7826 810.714 94.8291 810.946 94.8291C811.118 94.8291 811.27 94.8166 811.403 94.7915V95.9678C811.098 96.0609 810.785 96.1074 810.463 96.1074C809.374 96.1074 808.819 95.5578 808.798 94.4585V91.3271H807.949V90.1885H808.798V88.7598H810.35ZM814.03 96H812.472V90.1885H814.03V96ZM812.381 88.6846C812.381 88.4518 812.458 88.2603 812.612 88.1099C812.77 87.9595 812.983 87.8843 813.251 87.8843C813.516 87.8843 813.727 87.9595 813.885 88.1099C814.043 88.2603 814.121 88.4518 814.121 88.6846C814.121 88.9209 814.041 89.1143 813.88 89.2646C813.722 89.415 813.513 89.4902 813.251 89.4902C812.99 89.4902 812.779 89.415 812.617 89.2646C812.46 89.1143 812.381 88.9209 812.381 88.6846ZM815.255 93.0405C815.255 92.464 815.366 91.9502 815.588 91.499C815.81 91.0479 816.129 90.6987 816.544 90.4517C816.963 90.2046 817.449 90.0811 818 90.0811C818.784 90.0811 819.423 90.321 819.917 90.8008C820.415 91.2806 820.693 91.9323 820.75 92.7559L820.761 93.1533C820.761 94.0449 820.512 94.7611 820.014 95.3018C819.516 95.8389 818.849 96.1074 818.011 96.1074C817.173 96.1074 816.503 95.8389 816.002 95.3018C815.504 94.7646 815.255 94.0342 815.255 93.1104V93.0405ZM816.808 93.1533C816.808 93.7048 816.911 94.1273 817.119 94.4209C817.327 94.7109 817.624 94.856 818.011 94.856C818.387 94.856 818.68 94.7127 818.892 94.4263C819.103 94.1362 819.208 93.6743 819.208 93.0405C819.208 92.4998 819.103 92.0809 818.892 91.7837C818.68 91.4865 818.383 91.3379 818 91.3379C817.62 91.3379 817.327 91.4865 817.119 91.7837C816.911 92.0773 816.808 92.5339 816.808 93.1533ZM823.329 90.1885L823.377 90.8599C823.793 90.3407 824.349 90.0811 825.048 90.0811C825.663 90.0811 826.122 90.2619 826.423 90.6235C826.723 90.9852 826.877 91.5259 826.884 92.2456V96H825.332V92.2832C825.332 91.9538 825.261 91.7157 825.117 91.5688C824.974 91.4185 824.736 91.3433 824.403 91.3433C823.966 91.3433 823.639 91.5295 823.42 91.9019V96H821.868V90.1885H823.329Z" fill="#89969F"/>
<rect x="1252" y="63" width="98" height="58" rx="4" fill="#DEE7EE" stroke="#B8C5D0" stroke-width="2"/>
<path d="M1291.86 92.6108H1288.76V94.7056H1292.39V96H1287.15V88.1797H1292.38V89.4849H1288.76V91.3486H1291.86V92.6108ZM1293.07 93.0513C1293.07 92.1453 1293.27 91.4238 1293.68 90.8867C1294.09 90.3496 1294.64 90.0811 1295.35 90.0811C1295.91 90.0811 1296.38 90.2923 1296.75 90.7148V87.75H1298.31V96H1296.91L1296.83 95.3823C1296.44 95.8657 1295.95 96.1074 1295.34 96.1074C1294.65 96.1074 1294.1 95.8389 1293.69 95.3018C1293.28 94.7611 1293.07 94.0109 1293.07 93.0513ZM1294.62 93.1641C1294.62 93.7083 1294.72 94.1255 1294.91 94.4155C1295.1 94.7056 1295.37 94.8506 1295.74 94.8506C1296.22 94.8506 1296.55 94.6483 1296.75 94.2437V91.9502C1296.56 91.5456 1296.22 91.3433 1295.75 91.3433C1295 91.3433 1294.62 91.9502 1294.62 93.1641ZM1301.33 96H1299.78V90.1885H1301.33V96ZM1299.68 88.6846C1299.68 88.4518 1299.76 88.2603 1299.91 88.1099C1300.07 87.9595 1300.29 87.8843 1300.55 87.8843C1300.82 87.8843 1301.03 87.9595 1301.19 88.1099C1301.35 88.2603 1301.42 88.4518 1301.42 88.6846C1301.42 88.9209 1301.34 89.1143 1301.18 89.2646C1301.02 89.415 1300.82 89.4902 1300.55 89.4902C1300.29 89.4902 1300.08 89.415 1299.92 89.2646C1299.76 89.1143 1299.68 88.9209 1299.68 88.6846ZM1304.66 88.7598V90.1885H1305.65V91.3271H1304.66V94.2275C1304.66 94.4424 1304.7 94.5964 1304.78 94.6895C1304.86 94.7826 1305.02 94.8291 1305.25 94.8291C1305.43 94.8291 1305.58 94.8166 1305.71 94.7915V95.9678C1305.41 96.0609 1305.09 96.1074 1304.77 96.1074C1303.68 96.1074 1303.13 95.5578 1303.11 94.4585V91.3271H1302.26V90.1885H1303.11V88.7598H1304.66ZM1306.3 93.0405C1306.3 92.464 1306.41 91.9502 1306.63 91.499C1306.85 91.0479 1307.17 90.6987 1307.59 90.4517C1308.01 90.2046 1308.49 90.0811 1309.04 90.0811C1309.83 90.0811 1310.47 90.321 1310.96 90.8008C1311.46 91.2806 1311.73 91.9323 1311.79 92.7559L1311.8 93.1533C1311.8 94.0449 1311.55 94.7611 1311.06 95.3018C1310.56 95.8389 1309.89 96.1074 1309.05 96.1074C1308.21 96.1074 1307.54 95.8389 1307.04 95.3018C1306.55 94.7646 1306.3 94.0342 1306.3 93.1104V93.0405ZM1307.85 93.1533C1307.85 93.7048 1307.95 94.1273 1308.16 94.4209C1308.37 94.7109 1308.67 94.856 1309.05 94.856C1309.43 94.856 1309.72 94.7127 1309.93 94.4263C1310.14 94.1362 1310.25 93.6743 1310.25 93.0405C1310.25 92.4998 1310.14 92.0809 1309.93 91.7837C1309.72 91.4865 1309.42 91.3379 1309.04 91.3379C1308.66 91.3379 1308.37 91.4865 1308.16 91.7837C1307.95 92.0773 1307.85 92.5339 1307.85 93.1533ZM1316.21 91.644C1316 91.6154 1315.81 91.6011 1315.65 91.6011C1315.06 91.6011 1314.68 91.7998 1314.49 92.1973V96H1312.94V90.1885H1314.41L1314.45 90.8813C1314.76 90.3478 1315.19 90.0811 1315.75 90.0811C1315.92 90.0811 1316.08 90.1043 1316.23 90.1509L1316.21 91.644Z" fill="#89969F"/>
<rect x="1496" y="63" width="98" height="58" rx="4" fill="#DEE7EE" stroke="#B8C5D0" stroke-width="2"/>
<path d="M1524.8 93.2446V96H1523.19V88.1797H1526.24C1526.83 88.1797 1527.34 88.2871 1527.79 88.502C1528.24 88.7168 1528.58 89.0229 1528.82 89.4204C1529.06 89.8143 1529.18 90.2637 1529.18 90.7686C1529.18 91.5348 1528.92 92.14 1528.39 92.584C1527.87 93.0244 1527.14 93.2446 1526.21 93.2446H1524.8ZM1524.8 91.9395H1526.24C1526.67 91.9395 1526.99 91.8392 1527.21 91.6387C1527.44 91.4382 1527.55 91.1517 1527.55 90.7793C1527.55 90.3962 1527.44 90.0864 1527.21 89.8501C1526.99 89.6138 1526.68 89.492 1526.28 89.4849H1524.8V91.9395ZM1533.68 96C1533.6 95.8604 1533.55 95.6867 1533.52 95.479C1533.14 95.8979 1532.66 96.1074 1532.05 96.1074C1531.48 96.1074 1531.01 95.9427 1530.64 95.6133C1530.26 95.2839 1530.08 94.8685 1530.08 94.3672C1530.08 93.7513 1530.3 93.2786 1530.76 92.9492C1531.22 92.6198 1531.88 92.4533 1532.74 92.4497H1533.46V92.1167C1533.46 91.8481 1533.39 91.6333 1533.25 91.4722C1533.11 91.311 1532.89 91.2305 1532.6 91.2305C1532.33 91.2305 1532.13 91.2931 1531.98 91.4185C1531.83 91.5438 1531.76 91.7157 1531.76 91.9341H1530.21C1530.21 91.5975 1530.31 91.286 1530.52 90.9995C1530.73 90.7131 1531.02 90.4893 1531.4 90.3281C1531.78 90.1634 1532.2 90.0811 1532.68 90.0811C1533.39 90.0811 1533.96 90.2619 1534.38 90.6235C1534.8 90.9816 1535.01 91.4865 1535.01 92.1382V94.6572C1535.02 95.2087 1535.09 95.6258 1535.24 95.9087V96H1533.68ZM1532.39 94.9204C1532.62 94.9204 1532.83 94.8703 1533.03 94.77C1533.22 94.6662 1533.36 94.5283 1533.46 94.3564V93.3574H1532.88C1532.1 93.3574 1531.69 93.626 1531.63 94.1631L1531.63 94.2544C1531.63 94.4478 1531.7 94.6071 1531.83 94.7324C1531.97 94.8577 1532.16 94.9204 1532.39 94.9204ZM1538.47 93.8032L1539.55 90.1885H1541.21L1538.88 96.9023L1538.75 97.2085C1538.4 97.9676 1537.83 98.3472 1537.03 98.3472C1536.8 98.3472 1536.57 98.3132 1536.34 98.2451V97.0688L1536.58 97.0742C1536.87 97.0742 1537.09 97.0295 1537.23 96.9399C1537.38 96.8504 1537.49 96.7018 1537.58 96.4941L1537.76 96.0161L1535.72 90.1885H1537.39L1538.47 93.8032ZM1543.46 90.1885L1543.51 90.8384C1543.92 90.3335 1544.48 90.0811 1545.18 90.0811C1545.93 90.0811 1546.44 90.3765 1546.72 90.9673C1547.13 90.3765 1547.71 90.0811 1548.47 90.0811C1549.1 90.0811 1549.57 90.2655 1549.88 90.6343C1550.18 90.9995 1550.34 91.5509 1550.34 92.2886V96H1548.78V92.2939C1548.78 91.9645 1548.72 91.7246 1548.59 91.5742C1548.46 91.4202 1548.23 91.3433 1547.91 91.3433C1547.44 91.3433 1547.12 91.5653 1546.94 92.0093L1546.94 96H1545.39V92.2993C1545.39 91.9627 1545.33 91.7192 1545.19 91.5688C1545.06 91.4185 1544.83 91.3433 1544.52 91.3433C1544.08 91.3433 1543.76 91.5259 1543.56 91.8911V96H1542.01V90.1885H1543.46ZM1554.39 96.1074C1553.54 96.1074 1552.85 95.846 1552.31 95.3232C1551.78 94.8005 1551.51 94.104 1551.51 93.2339V93.0835C1551.51 92.4998 1551.62 91.9788 1551.85 91.5205C1552.07 91.0586 1552.39 90.7041 1552.8 90.457C1553.22 90.2064 1553.69 90.0811 1554.22 90.0811C1555.02 90.0811 1555.64 90.3317 1556.1 90.833C1556.56 91.3343 1556.78 92.0451 1556.78 92.9653V93.5991H1553.08C1553.13 93.9787 1553.28 94.283 1553.54 94.5122C1553.79 94.7414 1554.11 94.856 1554.5 94.856C1555.09 94.856 1555.56 94.6393 1555.9 94.2061L1556.66 95.0601C1556.43 95.3895 1556.11 95.6473 1555.72 95.8335C1555.32 96.0161 1554.88 96.1074 1554.39 96.1074ZM1554.22 91.3379C1553.91 91.3379 1553.66 91.4417 1553.47 91.6494C1553.28 91.8571 1553.15 92.1543 1553.1 92.541H1555.26V92.4175C1555.25 92.0737 1555.16 91.8088 1554.98 91.6226C1554.8 91.4328 1554.55 91.3379 1554.22 91.3379ZM1559.28 90.1885L1559.33 90.8599C1559.75 90.3407 1560.3 90.0811 1561 90.0811C1561.62 90.0811 1562.08 90.2619 1562.38 90.6235C1562.68 90.9852 1562.83 91.5259 1562.84 92.2456V96H1561.29V92.2832C1561.29 91.9538 1561.21 91.7157 1561.07 91.5688C1560.93 91.4185 1560.69 91.3433 1560.36 91.3433C1559.92 91.3433 1559.59 91.5295 1559.37 91.9019V96H1557.82V90.1885H1559.28ZM1566.06 88.7598V90.1885H1567.06V91.3271H1566.06V94.2275C1566.06 94.4424 1566.1 94.5964 1566.19 94.6895C1566.27 94.7826 1566.43 94.8291 1566.66 94.8291C1566.83 94.8291 1566.98 94.8166 1567.11 94.7915V95.9678C1566.81 96.0609 1566.5 96.1074 1566.17 96.1074C1565.09 96.1074 1564.53 95.5578 1564.51 94.4585V91.3271H1563.66V90.1885H1564.51V88.7598H1566.06Z" fill="#89969F"/>
<rect x="1740" y="63" width="98" height="58" rx="4" fill="#DEE7EE" stroke="#B8C5D0" stroke-width="2"/>
<path d="M1769.03 89.4849H1766.64V96H1765.03V89.4849H1762.66V88.1797H1769.03V89.4849ZM1771.55 90.8223C1771.96 90.3281 1772.48 90.0811 1773.1 90.0811C1774.36 90.0811 1775 90.8133 1775.02 92.2778V96H1773.47V92.3208C1773.47 91.9878 1773.4 91.7425 1773.25 91.585C1773.11 91.4238 1772.87 91.3433 1772.54 91.3433C1772.09 91.3433 1771.76 91.5187 1771.55 91.8696V96H1770V87.75H1771.55V90.8223ZM1779.74 96C1779.67 95.8604 1779.62 95.6867 1779.59 95.479C1779.21 95.8979 1778.72 96.1074 1778.12 96.1074C1777.55 96.1074 1777.08 95.9427 1776.7 95.6133C1776.33 95.2839 1776.15 94.8685 1776.15 94.3672C1776.15 93.7513 1776.37 93.2786 1776.83 92.9492C1777.29 92.6198 1777.95 92.4533 1778.81 92.4497H1779.52V92.1167C1779.52 91.8481 1779.45 91.6333 1779.31 91.4722C1779.18 91.311 1778.96 91.2305 1778.66 91.2305C1778.4 91.2305 1778.2 91.2931 1778.05 91.4185C1777.9 91.5438 1777.83 91.7157 1777.83 91.9341H1776.27C1776.27 91.5975 1776.38 91.286 1776.59 90.9995C1776.79 90.7131 1777.09 90.4893 1777.47 90.3281C1777.85 90.1634 1778.27 90.0811 1778.74 90.0811C1779.46 90.0811 1780.03 90.2619 1780.45 90.6235C1780.87 90.9816 1781.08 91.4865 1781.08 92.1382V94.6572C1781.08 95.2087 1781.16 95.6258 1781.31 95.9087V96H1779.74ZM1778.46 94.9204C1778.69 94.9204 1778.9 94.8703 1779.09 94.77C1779.29 94.6662 1779.43 94.5283 1779.52 94.3564V93.3574H1778.94C1778.17 93.3574 1777.75 93.626 1777.7 94.1631L1777.7 94.2544C1777.7 94.4478 1777.77 94.6071 1777.9 94.7324C1778.04 94.8577 1778.22 94.9204 1778.46 94.9204ZM1783.89 90.1885L1783.93 90.8599C1784.35 90.3407 1784.91 90.0811 1785.6 90.0811C1786.22 90.0811 1786.68 90.2619 1786.98 90.6235C1787.28 90.9852 1787.43 91.5259 1787.44 92.2456V96H1785.89V92.2832C1785.89 91.9538 1785.82 91.7157 1785.67 91.5688C1785.53 91.4185 1785.29 91.3433 1784.96 91.3433C1784.52 91.3433 1784.2 91.5295 1783.98 91.9019V96H1782.42V90.1885H1783.89ZM1790.92 93.6689L1790.36 94.2275V96H1788.81V87.75H1790.36V92.3208L1790.66 91.9341L1792.15 90.1885H1794.01L1791.91 92.6108L1794.19 96H1792.41L1790.92 93.6689ZM1799.96 93.8032L1801.03 90.1885H1802.7L1800.36 96.9023L1800.23 97.2085C1799.88 97.9676 1799.31 98.3472 1798.51 98.3472C1798.29 98.3472 1798.06 98.3132 1797.83 98.2451V97.0688L1798.06 97.0742C1798.36 97.0742 1798.57 97.0295 1798.72 96.9399C1798.86 96.8504 1798.98 96.7018 1799.06 96.4941L1799.24 96.0161L1797.21 90.1885H1798.88L1799.96 93.8032ZM1803.17 93.0405C1803.17 92.464 1803.28 91.9502 1803.5 91.499C1803.72 91.0479 1804.04 90.6987 1804.45 90.4517C1804.87 90.2046 1805.36 90.0811 1805.91 90.0811C1806.69 90.0811 1807.33 90.321 1807.83 90.8008C1808.33 91.2806 1808.6 91.9323 1808.66 92.7559L1808.67 93.1533C1808.67 94.0449 1808.42 94.7611 1807.92 95.3018C1807.43 95.8389 1806.76 96.1074 1805.92 96.1074C1805.08 96.1074 1804.41 95.8389 1803.91 95.3018C1803.41 94.7646 1803.17 94.0342 1803.17 93.1104V93.0405ZM1804.72 93.1533C1804.72 93.7048 1804.82 94.1273 1805.03 94.4209C1805.24 94.7109 1805.53 94.856 1805.92 94.856C1806.3 94.856 1806.59 94.7127 1806.8 94.4263C1807.01 94.1362 1807.12 93.6743 1807.12 93.0405C1807.12 92.4998 1807.01 92.0809 1806.8 91.7837C1806.59 91.4865 1806.29 91.3379 1805.91 91.3379C1805.53 91.3379 1805.24 91.4865 1805.03 91.7837C1804.82 92.0773 1804.72 92.5339 1804.72 93.1533ZM1813.29 95.4092C1812.91 95.8747 1812.38 96.1074 1811.7 96.1074C1811.08 96.1074 1810.6 95.9284 1810.27 95.5703C1809.95 95.2122 1809.78 94.6877 1809.77 93.9966V90.1885H1811.32V93.9429C1811.32 94.548 1811.6 94.8506 1812.15 94.8506C1812.68 94.8506 1813.04 94.668 1813.24 94.3027V90.1885H1814.79V96H1813.33L1813.29 95.4092Z" fill="#89969F"/>
<rect x="514" y="121" width="98" height="58" rx="4" fill="#DEE7EE" stroke="#B8C5D0" stroke-width="2"/>
<path d="M545.595 151.137H544.312V154H542.7V146.18H545.606C546.53 146.18 547.242 146.386 547.744 146.797C548.245 147.209 548.496 147.791 548.496 148.543C548.496 149.076 548.379 149.522 548.147 149.88C547.917 150.235 547.568 150.518 547.099 150.729L548.791 153.925V154H547.062L545.595 151.137ZM544.312 149.832H545.611C546.016 149.832 546.329 149.73 546.551 149.526C546.773 149.318 546.884 149.034 546.884 148.672C546.884 148.303 546.779 148.013 546.567 147.802C546.36 147.59 546.039 147.485 545.606 147.485H544.312V149.832ZM552.482 154.107C551.63 154.107 550.935 153.846 550.398 153.323C549.864 152.8 549.597 152.104 549.597 151.234V151.083C549.597 150.5 549.71 149.979 549.936 149.521C550.161 149.059 550.48 148.704 550.892 148.457C551.307 148.206 551.78 148.081 552.31 148.081C553.105 148.081 553.73 148.332 554.184 148.833C554.643 149.334 554.872 150.045 554.872 150.965V151.599H551.171C551.221 151.979 551.372 152.283 551.622 152.512C551.877 152.741 552.197 152.856 552.584 152.856C553.182 152.856 553.649 152.639 553.986 152.206L554.748 153.06C554.516 153.389 554.2 153.647 553.803 153.833C553.406 154.016 552.965 154.107 552.482 154.107ZM552.304 149.338C551.997 149.338 551.746 149.442 551.553 149.649C551.363 149.857 551.241 150.154 551.187 150.541H553.346V150.417C553.339 150.074 553.246 149.809 553.067 149.623C552.888 149.433 552.634 149.338 552.304 149.338ZM555.716 151.051C555.716 150.16 555.927 149.442 556.35 148.897C556.776 148.353 557.349 148.081 558.068 148.081C558.706 148.081 559.202 148.299 559.556 148.736L559.621 148.188H561.028V153.807C561.028 154.315 560.911 154.757 560.679 155.133C560.45 155.509 560.126 155.796 559.707 155.993C559.288 156.19 558.797 156.288 558.235 156.288C557.809 156.288 557.393 156.202 556.989 156.03C556.584 155.862 556.278 155.644 556.07 155.375L556.758 154.43C557.145 154.863 557.614 155.08 558.165 155.08C558.577 155.08 558.897 154.969 559.126 154.747C559.356 154.528 559.47 154.217 559.47 153.812V153.5C559.112 153.905 558.641 154.107 558.058 154.107C557.359 154.107 556.794 153.835 556.36 153.291C555.931 152.743 555.716 152.018 555.716 151.116V151.051ZM557.268 151.164C557.268 151.69 557.374 152.104 557.585 152.405C557.796 152.702 558.086 152.851 558.455 152.851C558.928 152.851 559.266 152.673 559.47 152.319V149.875C559.263 149.521 558.928 149.343 558.466 149.343C558.093 149.343 557.8 149.495 557.585 149.8C557.374 150.104 557.268 150.559 557.268 151.164ZM564.047 154H562.49V148.188H564.047V154ZM562.398 146.685C562.398 146.452 562.475 146.26 562.629 146.11C562.787 145.959 563 145.884 563.268 145.884C563.533 145.884 563.745 145.959 563.902 146.11C564.06 146.26 564.138 146.452 564.138 146.685C564.138 146.921 564.058 147.114 563.897 147.265C563.739 147.415 563.53 147.49 563.268 147.49C563.007 147.49 562.796 147.415 562.635 147.265C562.477 147.114 562.398 146.921 562.398 146.685ZM568.662 152.394C568.662 152.204 568.567 152.056 568.377 151.948C568.191 151.837 567.89 151.739 567.475 151.653C566.092 151.363 565.401 150.776 565.401 149.891C565.401 149.375 565.614 148.946 566.041 148.602C566.47 148.255 567.031 148.081 567.722 148.081C568.459 148.081 569.048 148.255 569.489 148.602C569.933 148.949 570.155 149.401 570.155 149.956H568.603C568.603 149.734 568.531 149.551 568.388 149.408C568.244 149.261 568.021 149.188 567.716 149.188C567.455 149.188 567.253 149.247 567.109 149.365C566.966 149.483 566.895 149.633 566.895 149.816C566.895 149.988 566.975 150.127 567.136 150.235C567.301 150.339 567.577 150.43 567.963 150.509C568.35 150.584 568.676 150.67 568.941 150.767C569.761 151.067 570.171 151.588 570.171 152.33C570.171 152.86 569.944 153.289 569.489 153.619C569.034 153.944 568.447 154.107 567.727 154.107C567.24 154.107 566.807 154.021 566.427 153.85C566.051 153.674 565.756 153.436 565.541 153.135C565.326 152.831 565.219 152.503 565.219 152.152H566.69C566.705 152.428 566.807 152.639 566.997 152.786C567.186 152.933 567.441 153.006 567.759 153.006C568.056 153.006 568.28 152.951 568.431 152.84C568.585 152.725 568.662 152.577 568.662 152.394ZM573.217 146.76V148.188H574.211V149.327H573.217V152.228C573.217 152.442 573.258 152.596 573.341 152.689C573.423 152.783 573.58 152.829 573.813 152.829C573.985 152.829 574.137 152.817 574.27 152.792V153.968C573.965 154.061 573.652 154.107 573.33 154.107C572.241 154.107 571.686 153.558 571.665 152.458V149.327H570.816V148.188H571.665V146.76H573.217ZM577.934 154.107C577.081 154.107 576.387 153.846 575.85 153.323C575.316 152.8 575.049 152.104 575.049 151.234V151.083C575.049 150.5 575.162 149.979 575.388 149.521C575.613 149.059 575.932 148.704 576.344 148.457C576.759 148.206 577.232 148.081 577.762 148.081C578.557 148.081 579.181 148.332 579.636 148.833C580.095 149.334 580.324 150.045 580.324 150.965V151.599H576.623C576.673 151.979 576.824 152.283 577.074 152.512C577.328 152.741 577.649 152.856 578.036 152.856C578.634 152.856 579.101 152.639 579.437 152.206L580.2 153.06C579.967 153.389 579.652 153.647 579.255 153.833C578.857 154.016 578.417 154.107 577.934 154.107ZM577.756 149.338C577.448 149.338 577.198 149.442 577.004 149.649C576.815 149.857 576.693 150.154 576.639 150.541H578.798V150.417C578.791 150.074 578.698 149.809 578.519 149.623C578.34 149.433 578.086 149.338 577.756 149.338ZM584.659 149.644C584.448 149.615 584.261 149.601 584.1 149.601C583.513 149.601 583.128 149.8 582.946 150.197V154H581.393V148.188H582.86L582.903 148.881C583.214 148.348 583.646 148.081 584.197 148.081C584.369 148.081 584.53 148.104 584.68 148.151L584.659 149.644Z" fill="#89969F"/>
<path d="M867.5 91.5H985.517" stroke="#89969F" stroke-linecap="square"/>
<path fill-rule="evenodd" clip-rule="evenodd" d="M987 91.5L984 94V89L987 91.5Z" fill="#89969F"/>
<path d="M1120.5 94.5H1238.52" stroke="#89969F" stroke-linecap="square"/>
<path fill-rule="evenodd" clip-rule="evenodd" d="M1240 94.5L1237 97V92L1240 94.5Z" fill="#89969F"/>
<path d="M1362.5 91.5H1480.52" stroke="#89969F" stroke-linecap="square"/>
<path fill-rule="evenodd" clip-rule="evenodd" d="M1482 91.5L1479 94V89L1482 91.5Z" fill="#89969F"/>
<path d="M1606.5 91.5H1724.52" stroke="#89969F" stroke-linecap="square"/>
<path fill-rule="evenodd" clip-rule="evenodd" d="M1726 91.5L1723 94V89L1726 91.5Z" fill="#89969F"/>
<path d="M501 30L452 30C446.477 30 442 34.4772 442 40V140C442 145.523 446.477 150 452 150H501" stroke="#89969F"/>
<path d="M442.519 90H381.996" stroke="#89969F"/>
<path fill-rule="evenodd" clip-rule="evenodd" d="M499 33V27L502 30L499 33Z" fill="#89969F"/>
<path fill-rule="evenodd" clip-rule="evenodd" d="M499 153V147L502 150L499 153Z" fill="#89969F"/>
<path d="M624 32H674C679.523 32 684 36.4772 684 42V142C684 147.523 679.523 152 674 152H624" stroke="#89969F"/>
<path d="M684 92H743.004" stroke="#89969F"/>
<path fill-rule="evenodd" clip-rule="evenodd" d="M741 95V89L744 92L741 95Z" fill="#89969F"/>
<rect opacity="0.25" x="1010" y="70" width="98" height="58" rx="4" fill="#DEE7EE" stroke="#B8C5D0" stroke-width="2"/>
<rect opacity="0.5" x="1005" y="65" width="98" height="58" rx="4" fill="#DEE7EE" stroke="#B8C5D0" stroke-width="2"/>
<rect x="1000" y="60" width="98" height="58" rx="4" fill="#DEE7EE" stroke="#B8C5D0" stroke-width="2"/>
<path d="M1040.96 93H1039.35V89.6484H1036.2V93H1034.59V85.1797H1036.2V88.3486H1039.35V85.1797H1040.96V93ZM1042.21 90.0405C1042.21 89.464 1042.32 88.9502 1042.54 88.499C1042.77 88.0479 1043.08 87.6987 1043.5 87.4517C1043.92 87.2046 1044.4 87.0811 1044.95 87.0811C1045.74 87.0811 1046.38 87.321 1046.87 87.8008C1047.37 88.2806 1047.65 88.9323 1047.7 89.7559L1047.72 90.1533C1047.72 91.0449 1047.47 91.7611 1046.97 92.3018C1046.47 92.8389 1045.8 93.1074 1044.97 93.1074C1044.13 93.1074 1043.46 92.8389 1042.96 92.3018C1042.46 91.7646 1042.21 91.0342 1042.21 90.1104V90.0405ZM1043.76 90.1533C1043.76 90.7048 1043.87 91.1273 1044.07 91.4209C1044.28 91.7109 1044.58 91.856 1044.97 91.856C1045.34 91.856 1045.64 91.7127 1045.85 91.4263C1046.06 91.1362 1046.16 90.6743 1046.16 90.0405C1046.16 89.4998 1046.06 89.0809 1045.85 88.7837C1045.64 88.4865 1045.34 88.3379 1044.95 88.3379C1044.58 88.3379 1044.28 88.4865 1044.07 88.7837C1043.87 89.0773 1043.76 89.5339 1043.76 90.1533ZM1050.31 87.1885L1050.36 87.8384C1050.77 87.3335 1051.33 87.0811 1052.03 87.0811C1052.78 87.0811 1053.29 87.3765 1053.57 87.9673C1053.98 87.3765 1054.56 87.0811 1055.32 87.0811C1055.95 87.0811 1056.42 87.2655 1056.72 87.6343C1057.03 87.9995 1057.19 88.5509 1057.19 89.2886V93H1055.63V89.2939C1055.63 88.9645 1055.56 88.7246 1055.43 88.5742C1055.31 88.4202 1055.08 88.3433 1054.75 88.3433C1054.29 88.3433 1053.96 88.5653 1053.79 89.0093L1053.79 93H1052.24V89.2993C1052.24 88.9627 1052.17 88.7192 1052.04 88.5688C1051.91 88.4185 1051.68 88.3433 1051.36 88.3433C1050.92 88.3433 1050.6 88.5259 1050.41 88.8911V93H1048.85V87.1885H1050.31ZM1061.24 93.1074C1060.39 93.1074 1059.69 92.846 1059.16 92.3232C1058.62 91.8005 1058.36 91.104 1058.36 90.2339V90.0835C1058.36 89.4998 1058.47 88.9788 1058.7 88.5205C1058.92 88.0586 1059.24 87.7041 1059.65 87.457C1060.07 87.2064 1060.54 87.0811 1061.07 87.0811C1061.86 87.0811 1062.49 87.3317 1062.94 87.833C1063.4 88.3343 1063.63 89.0451 1063.63 89.9653V90.5991H1059.93C1059.98 90.9787 1060.13 91.283 1060.38 91.5122C1060.64 91.7414 1060.96 91.856 1061.34 91.856C1061.94 91.856 1062.41 91.6393 1062.75 91.2061L1063.51 92.0601C1063.28 92.3895 1062.96 92.6473 1062.56 92.8335C1062.17 93.0161 1061.72 93.1074 1061.24 93.1074ZM1061.06 88.3379C1060.76 88.3379 1060.51 88.4417 1060.31 88.6494C1060.12 88.8571 1060 89.1543 1059.95 89.541H1062.11V89.4175C1062.1 89.0737 1062.01 88.8088 1061.83 88.6226C1061.65 88.4328 1061.39 88.3379 1061.06 88.3379Z" fill="#89969F"/>
<path d="M437.5 490.5H555.517" stroke="#89969F" stroke-linecap="square"/>
<path fill-rule="evenodd" clip-rule="evenodd" d="M557 490.5L554 493V488L557 490.5Z" fill="#89969F"/>
<path d="M140.5 490.5H258.517" stroke="#89969F" stroke-linecap="square"/>
<path fill-rule="evenodd" clip-rule="evenodd" d="M260 490.5L257 493V488L260 490.5Z" fill="#89969F"/>
<path d="M717.5 488.5H835.517" stroke="#89969F" stroke-linecap="square"/>
<path fill-rule="evenodd" clip-rule="evenodd" d="M837 488.5L834 486V491L837 488.5Z" fill="#89969F"/>
<path d="M997.5 488.5H1115.52" stroke="#89969F" stroke-linecap="square"/>
<path fill-rule="evenodd" clip-rule="evenodd" d="M1117 488.5L1114 486V491L1117 488.5Z" fill="#89969F"/>
<path d="M1277.5 488.5H1395.52" stroke="#89969F" stroke-linecap="square"/>
<path fill-rule="evenodd" clip-rule="evenodd" d="M1397 488.5L1394 486V491L1397 488.5Z" fill="#89969F"/>
<path d="M1557.5 488.5H1675.52" stroke="#89969F" stroke-linecap="square"/>
<path fill-rule="evenodd" clip-rule="evenodd" d="M1677 488.5L1674 486V491L1677 488.5Z" fill="#89969F"/>
<rect x="284" y="413" width="120" height="150" rx="4" fill="#B8C5D0"/>
<path fill-rule="evenodd" clip-rule="evenodd" d="M292 429H396C398.209 429 400 430.791 400 433V555C400 557.209 398.209 559 396 559H292C289.791 559 288 557.209 288 555V433C288 430.791 289.791 429 292 429ZM290 419C291.105 419 292 419.895 292 421C292 422.105 291.105 423 290 423C288.895 423 288 422.105 288 421C288 419.895 288.895 419 290 419ZM296 419C297.105 419 298 419.895 298 421C298 422.105 297.105 423 296 423C294.895 423 294 422.105 294 421C294 419.895 294.895 419 296 419ZM302 419C303.105 419 304 419.895 304 421C304 422.105 303.105 423 302 423C300.895 423 300 422.105 300 421C300 419.895 300.895 419 302 419Z" fill="#F6F8F9"/>
<rect x="330" y="471" width="28" height="3" rx="1" fill="#89969F"/>
<rect x="317" y="486" width="54" height="6" rx="1" fill="#B8C5D0"/>
<rect x="317" y="498" width="54" height="6" rx="1" fill="#B8C5D0"/>
<rect x="349" y="510" width="22" height="7" rx="1" fill="#89969F"/>
<rect x="577" y="412" width="120" height="150" rx="4" fill="#B8C5D0"/>
<path fill-rule="evenodd" clip-rule="evenodd" d="M585 428H689C691.209 428 693 429.791 693 432V554C693 556.209 691.209 558 689 558H585C582.791 558 581 556.209 581 554V432C581 429.791 582.791 428 585 428ZM583 418C584.105 418 585 418.895 585 420C585 421.105 584.105 422 583 422C581.895 422 581 421.105 581 420C581.003 418.897 581.897 418.003 583 418ZM589 418C590.105 418 591 418.895 591 420C591 421.105 590.105 422 589 422C587.895 422 587 421.105 587 420C587.003 418.897 587.897 418.003 589 418ZM595 418C596.105 418 597 418.895 597 420C597 421.105 596.105 422 595 422C593.895 422 593 421.105 593 420C593.003 418.897 593.897 418.003 595 418Z" fill="#F6F8F9"/>
<rect x="583" y="430" width="108" height="62" rx="4" fill="#89969F"/>
<path fill-rule="evenodd" clip-rule="evenodd" d="M637.5 448C640.042 448.022 642.471 449.054 644.253 450.867C646.035 452.681 647.023 455.128 647 457.67C647 463.02 639.28 474 637.5 474C635.72 474 628 463.02 628 457.67C627.977 455.128 628.965 452.681 630.747 450.867C632.529 449.054 634.958 448.022 637.5 448V448ZM637.5 453.44C639.22 453.409 640.789 454.422 641.468 456.003C642.147 457.584 641.803 459.419 640.596 460.646C639.39 461.872 637.561 462.247 635.969 461.595C634.377 460.942 633.338 459.391 633.34 457.67C633.323 455.354 635.184 453.462 637.5 453.44Z" fill="#B8C5D0"/>
<rect x="591" y="500" width="12" height="3" rx="1" fill="#DEE7EE"/>
<rect x="591" y="509" width="12" height="3" rx="1" fill="#DEE7EE"/>
<rect x="591" y="518" width="12" height="3" rx="1" fill="#DEE7EE"/>
<rect x="620" y="500" width="63" height="6" rx="1" fill="#B8C5D0"/>
<rect x="620" y="509" width="63" height="6" rx="1" fill="#B8C5D0"/>
<rect x="620" y="518" width="63" height="18" rx="1" fill="#B8C5D0"/>
<rect x="661" y="539" width="22" height="7" rx="1" fill="#89969F"/>
<rect x="857" y="412" width="120" height="150" rx="4" fill="#B8C5D0"/>
<path fill-rule="evenodd" clip-rule="evenodd" d="M865 428H969C971.209 428 973 429.791 973 432V554C973 556.209 971.209 558 969 558H865C862.791 558 861 556.209 861 554V432C861 429.791 862.791 428 865 428ZM863 418C864.105 418 865 418.895 865 420C865 421.105 864.105 422 863 422C861.895 422 861 421.105 861 420C861 418.895 861.895 418 863 418ZM869 418C870.105 418 871 418.895 871 420C871 421.105 870.105 422 869 422C867.895 422 867 421.105 867 420C867 418.895 867.895 418 869 418ZM875 418C876.105 418 877 418.895 877 420C877 421.105 876.105 422 875 422C873.895 422 873 421.105 873 420C873 418.895 873.895 418 875 418Z" fill="#F6F8F9"/>
<rect x="863" y="430" width="35" height="54" rx="4" fill="#89969F"/>
<rect x="863" y="505" width="35" height="51" rx="4" fill="#89969F"/>
<rect x="936" y="466" width="35" height="51" rx="4" fill="#89969F"/>
<rect x="900" y="485" width="34" height="51" rx="4" fill="#89969F"/>
<rect x="900" y="430" width="34" height="17" rx="4" fill="#89969F"/>
<rect x="900" y="538" width="34" height="18" rx="4" fill="#89969F"/>
<rect x="863" y="486" width="35" height="17" rx="4" fill="#89969F"/>
<rect x="936" y="430" width="35" height="34" rx="4" fill="#89969F"/>
<rect x="900" y="449" width="34" height="34" rx="4" fill="#89969F"/>
<rect x="936" y="519" width="35" height="37" rx="4" fill="#89969F"/>
<rect x="1137" y="412" width="120" height="150" rx="4" fill="#B8C5D0"/>
<path fill-rule="evenodd" clip-rule="evenodd" d="M1145 428H1249C1251.21 428 1253 429.791 1253 432V554C1253 556.209 1251.21 558 1249 558H1145C1142.79 558 1141 556.209 1141 554V432C1141 429.791 1142.79 428 1145 428ZM1143 418C1144.1 418 1145 418.895 1145 420C1145 421.105 1144.1 422 1143 422C1141.9 422 1141 421.105 1141 420C1141 418.895 1141.9 418 1143 418ZM1149 418C1150.1 418 1151 418.895 1151 420C1151 421.105 1150.1 422 1149 422C1147.9 422 1147 421.105 1147 420C1147 418.895 1147.9 418 1149 418ZM1155 418C1156.1 418 1157 418.895 1157 420C1157 421.105 1156.1 422 1155 422C1153.9 422 1153 421.105 1153 420C1153 418.895 1153.9 418 1155 418Z" fill="#F6F8F9"/>
<rect x="1143" y="440" width="53" height="49" rx="4" fill="#B8C5D0"/>
<mask id="mask0" mask-type="alpha" maskUnits="userSpaceOnUse" x="1143" y="440" width="53" height="49">
<rect x="1143" y="440" width="53" height="49" rx="4" fill="white"/>
</mask>
<g mask="url(#mask0)">
<path fill-rule="evenodd" clip-rule="evenodd" d="M1143 490C1143 490 1153.05 460.41 1163.47 490C1163.47 490 1170.35 476.78 1178 490H1143ZM1166.11 473C1167.15 473.049 1167.95 473.916 1167.92 474.949C1167.88 475.982 1167.03 476.798 1165.99 476.782C1164.96 476.765 1164.13 475.923 1164.13 474.89C1164.16 473.822 1165.04 472.977 1166.11 473V473ZM1178 490C1178 490 1188.05 460.41 1198.47 490C1198.47 490 1205.35 476.78 1213 490H1178Z" fill="#89969F"/>
</g>
<rect x="1202" y="440" width="37" height="3" rx="1" fill="#89969F"/>
<rect x="1202" y="449" width="48" height="3" rx="1" fill="#B8C5D0"/>
<rect x="1202" y="455" width="44" height="3" rx="1" fill="#B8C5D0"/>
<rect x="1202" y="461" width="47" height="3" rx="1" fill="#B8C5D0"/>
<rect x="1202" y="467" width="47" height="3" rx="1" fill="#B8C5D0"/>
<rect x="1202" y="473" width="27" height="3" rx="1" fill="#B8C5D0"/>
<rect x="1202" y="482" width="22" height="7" rx="1" fill="#89969F"/>
<rect x="1143" y="497" width="35" height="34" rx="4" fill="#B8C5D0"/>
<mask id="mask1" mask-type="alpha" maskUnits="userSpaceOnUse" x="1143" y="497" width="35" height="34">
<rect x="1143" y="497" width="35" height="34" rx="4" fill="white"/>
</mask>
<g mask="url(#mask1)">
<path fill-rule="evenodd" clip-rule="evenodd" d="M1143 531C1143 531 1153.05 501.41 1163.47 531C1163.47 531 1170.35 517.78 1178 531H1143ZM1166.11 514C1167.15 514.049 1167.95 514.916 1167.92 515.949C1167.88 516.982 1167.03 517.798 1165.99 517.782C1164.96 517.765 1164.13 516.923 1164.13 515.89C1164.16 514.822 1165.04 513.977 1166.11 514V514Z" fill="#89969F"/>
</g>
<rect x="1143" y="534" width="25" height="3" rx="1" fill="#89969F"/>
<rect x="1143" y="543" width="34" height="3" rx="1" fill="#B8C5D0"/>
<rect x="1180" y="497" width="34" height="34" rx="4" fill="#B8C5D0"/>
<mask id="mask2" mask-type="alpha" maskUnits="userSpaceOnUse" x="1180" y="497" width="34" height="34">
<rect x="1180" y="497" width="34" height="34" rx="4" fill="white"/>
</mask>
<g mask="url(#mask2)">
<path fill-rule="evenodd" clip-rule="evenodd" d="M1180 531C1180 531 1190.05 501.41 1200.47 531C1200.47 531 1207.35 517.78 1215 531H1180ZM1203.11 514C1204.15 514.049 1204.95 514.916 1204.92 515.949C1204.88 516.982 1204.03 517.798 1202.99 517.782C1201.96 517.765 1201.13 516.923 1201.13 515.89C1201.16 514.822 1202.04 513.977 1203.11 514V514Z" fill="#89969F"/>
</g>
<rect x="1180" y="534" width="25" height="3" rx="1" fill="#89969F"/>
<rect x="1180" y="543" width="33" height="3" rx="1" fill="#B8C5D0"/>
<rect x="1216" y="497" width="35" height="34" rx="4" fill="#B8C5D0"/>
<mask id="mask3" mask-type="alpha" maskUnits="userSpaceOnUse" x="1216" y="497" width="35" height="34">
<rect x="1216" y="497" width="35" height="34" rx="4" fill="white"/>
</mask>
<g mask="url(#mask3)">
<path fill-rule="evenodd" clip-rule="evenodd" d="M1216 531C1216 531 1226.05 501.41 1236.47 531C1236.47 531 1243.35 517.78 1251 531H1216ZM1239.11 514C1240.15 514.049 1240.95 514.916 1240.92 515.949C1240.88 516.982 1240.03 517.798 1238.99 517.782C1237.96 517.765 1237.13 516.923 1237.13 515.89C1237.16 514.822 1238.04 513.977 1239.11 514V514Z" fill="#89969F"/>
</g>
<rect x="1216" y="534" width="25" height="3" rx="1" fill="#89969F"/>
<rect x="1216" y="543" width="34" height="3" rx="1" fill="#B8C5D0"/>
<rect x="1417" y="412" width="120" height="150" rx="4" fill="#B8C5D0"/>
<path fill-rule="evenodd" clip-rule="evenodd" d="M1425 428H1529C1531.21 428 1533 429.791 1533 432V554C1533 556.209 1531.21 558 1529 558H1425C1422.79 558 1421 556.209 1421 554V432C1421 429.791 1422.79 428 1425 428ZM1423 418C1424.1 418 1425 418.895 1425 420C1425 421.105 1424.1 422 1423 422C1421.9 422 1421 421.105 1421 420C1421 418.897 1421.9 418.003 1423 418V418ZM1429 418C1430.1 418 1431 418.895 1431 420C1431 421.105 1430.1 422 1429 422C1427.9 422 1427 421.105 1427 420C1427 418.897 1427.9 418.003 1429 418V418ZM1435 418C1436.1 418 1437 418.895 1437 420C1437 421.105 1436.1 422 1435 422C1433.9 422 1433 421.105 1433 420C1433 418.897 1433.9 418.003 1435 418V418Z" fill="#F6F8F9"/>
<path d="M1433 443V442H1432V443H1433ZM1473 443H1474V442H1473V443ZM1473 447V448H1474V447H1473ZM1433 447H1432V448H1433V447ZM1481 443V442H1480V443H1481ZM1522 443H1523V442H1522V443ZM1522 447V448H1523V447H1522ZM1481 447H1480V448H1481V447ZM1425 445C1425 443.343 1426.34 442 1428 442V440C1425.24 440 1423 442.239 1423 445H1425ZM1428 448C1426.34 448 1425 446.657 1425 445H1423C1423 447.761 1425.24 450 1428 450V448ZM1431 445C1431 446.657 1429.66 448 1428 448V450C1430.76 450 1433 447.761 1433 445H1431ZM1428 442C1429.66 442 1431 443.343 1431 445H1433C1433 442.239 1430.76 440 1428 440V442ZM1428 438C1424.13 438 1421 441.134 1421 445H1423C1423 442.239 1425.24 440 1428 440V438ZM1435 445C1435 441.134 1431.87 438 1428 438V440C1430.76 440 1433 442.239 1433 445H1435ZM1428 452C1431.87 452 1435 448.866 1435 445H1433C1433 447.761 1430.76 450 1428 450V452ZM1421 445C1421 448.866 1424.13 452 1428 452V450C1425.24 450 1423 447.761 1423 445H1421ZM1474 445C1474 443.343 1475.34 442 1477 442V440C1474.24 440 1472 442.239 1472 445H1474ZM1477 448C1475.34 448 1474 446.657 1474 445H1472C1472 447.761 1474.24 450 1477 450V448ZM1480 445C1480 446.657 1478.66 448 1477 448V450C1479.76 450 1482 447.761 1482 445H1480ZM1477 442C1478.66 442 1480 443.343 1480 445H1482C1482 442.239 1479.76 440 1477 440V442ZM1477 438C1473.13 438 1470 441.134 1470 445H1472C1472 442.239 1474.24 440 1477 440V438ZM1484 445C1484 441.134 1480.87 438 1477 438V440C1479.76 440 1482 442.239 1482 445H1484ZM1477 452C1480.87 452 1484 448.866 1484 445H1482C1482 447.761 1479.76 450 1477 450V452ZM1470 445C1470 448.866 1473.13 452 1477 452V450C1474.24 450 1472 447.761 1472 445H1470ZM1523 445C1523 443.343 1524.34 442 1526 442V440C1523.24 440 1521 442.239 1521 445H1523ZM1526 448C1524.34 448 1523 446.657 1523 445H1521C1521 447.761 1523.24 450 1526 450V448ZM1529 445C1529 446.657 1527.66 448 1526 448V450C1528.76 450 1531 447.761 1531 445H1529ZM1526 442C1527.66 442 1529 443.343 1529 445H1531C1531 442.239 1528.76 440 1526 440V442ZM1526 438C1522.13 438 1519 441.134 1519 445H1521C1521 442.239 1523.24 440 1526 440V438ZM1533 445C1533 441.134 1529.87 438 1526 438V440C1528.76 440 1531 442.239 1531 445H1533ZM1526 452C1529.87 452 1533 448.866 1533 445H1531C1531 447.761 1528.76 450 1526 450V452ZM1519 445C1519 448.866 1522.13 452 1526 452V450C1523.24 450 1521 447.761 1521 445H1519ZM1434 442H1433V444H1434V442ZM1472 442H1434V444H1472V442ZM1473 442H1472V444H1473V442ZM1474 444V443H1472V444H1474ZM1474 446V444H1472V446H1474ZM1474 447V446H1472V447H1474ZM1472 448H1473V446H1472V448ZM1434 448H1472V446H1434V448ZM1433 448H1434V446H1433V448ZM1432 446V447H1434V446H1432ZM1432 444V446H1434V444H1432ZM1432 443V444H1434V443H1432ZM1482 442H1481V444H1482V442ZM1521 442H1482V444H1521V442ZM1522 442H1521V444H1522V442ZM1523 444V443H1521V444H1523ZM1523 446V444H1521V446H1523ZM1523 447V446H1521V447H1523ZM1521 448H1522V446H1521V448ZM1482 448H1521V446H1482V448ZM1481 448H1482V446H1481V448ZM1480 446V447H1482V446H1480ZM1480 444V446H1482V444H1480ZM1480 443V444H1482V443H1480Z" fill="#B8C5D0"/>
<rect x="1436" y="462" width="82" height="84" rx="1" fill="#DEE7EE"/>
<rect x="1445" y="472" width="64" height="6" rx="1" fill="#B8C5D0"/>
<rect x="1445" y="481" width="31" height="6" rx="1" fill="#B8C5D0"/>
<rect x="1478" y="481" width="31" height="6" rx="1" fill="#B8C5D0"/>
<rect x="1445" y="490" width="20" height="6" rx="1" fill="#B8C5D0"/>
<rect x="1467" y="490" width="20" height="6" rx="1" fill="#B8C5D0"/>
<rect x="1489" y="490" width="20" height="6" rx="1" fill="#B8C5D0"/>
<rect x="1445" y="506" width="10" height="6" rx="1" fill="#B8C5D0"/>
<rect x="1457" y="506" width="10" height="6" rx="1" fill="#B8C5D0"/>
<rect x="1469" y="506" width="10" height="6" rx="1" fill="#B8C5D0"/>
<rect x="1481" y="506" width="10" height="6" rx="1" fill="#B8C5D0"/>
<rect x="1487" y="529" width="22" height="7" rx="1" fill="#89969F"/>
<rect x="1697" y="412" width="120" height="150" rx="4" fill="#B8C5D0"/>
<path fill-rule="evenodd" clip-rule="evenodd" d="M1705 428H1809C1811.21 428 1813 429.791 1813 432V554C1813 556.209 1811.21 558 1809 558H1705C1702.79 558 1701 556.209 1701 554V432C1701 429.791 1702.79 428 1705 428ZM1703 418C1704.1 418 1705 418.895 1705 420C1705 421.105 1704.1 422 1703 422C1701.9 422 1701 421.105 1701 420C1701 418.897 1701.9 418.003 1703 418V418ZM1709 418C1710.1 418 1711 418.895 1711 420C1711 421.105 1710.1 422 1709 422C1707.9 422 1707 421.105 1707 420C1707 418.897 1707.9 418.003 1709 418V418ZM1715 418C1716.1 418 1717 418.895 1717 420C1717 421.105 1716.1 422 1715 422C1713.9 422 1713 421.105 1713 420C1713 418.897 1713.9 418.003 1715 418V418Z" fill="#F6F8F9"/>
<path fill-rule="evenodd" clip-rule="evenodd" d="M1717 440H1797C1797.55 440 1798 440.448 1798 441V545C1798 545.552 1797.55 546 1797 546H1791C1791 544.343 1789.66 543 1788 543C1786.34 543 1785 544.343 1785 546H1784C1784 544.343 1782.66 543 1781 543C1779.34 543 1778 544.343 1778 546H1777C1777 544.343 1775.66 543 1774 543C1772.34 543 1771 544.343 1771 546H1770C1770 544.343 1768.66 543 1767 543C1765.34 543 1764 544.343 1764 546H1763C1763 544.343 1761.66 543 1760 543C1758.34 543 1757 544.343 1757 546H1756C1756 544.343 1754.66 543 1753 543C1751.34 543 1750 544.343 1750 546H1749C1749 544.343 1747.66 543 1746 543C1744.34 543 1743 544.343 1743 546H1742C1742 544.343 1740.66 543 1739 543C1737.34 543 1736 544.343 1736 546H1735C1735 544.343 1733.66 543 1732 543C1730.34 543 1729 544.343 1729 546H1728C1728 544.343 1726.66 543 1725 543C1723.34 543 1722 544.343 1722 546H1717C1716.45 546 1716 545.552 1716 545V441C1716 440.448 1716.45 440 1717 440Z" fill="#DEE7EE"/>
<path d="M1745.9 464.345C1745.9 463.971 1745.8 463.675 1745.59 463.456C1745.38 463.233 1745.03 463.028 1744.53 462.841C1744.04 462.654 1743.61 462.469 1743.25 462.287C1742.89 462.1 1742.58 461.888 1742.32 461.651C1742.06 461.41 1741.86 461.127 1741.72 460.804C1741.58 460.48 1741.51 460.095 1741.51 459.648C1741.51 458.878 1741.75 458.247 1742.24 457.755C1742.74 457.263 1743.39 456.976 1744.21 456.894V455.431H1745.3V456.914C1746.11 457.028 1746.74 457.365 1747.19 457.926C1747.65 458.482 1747.88 459.204 1747.88 460.093H1745.9C1745.9 459.546 1745.79 459.138 1745.56 458.869C1745.34 458.596 1745.04 458.459 1744.66 458.459C1744.28 458.459 1743.99 458.566 1743.79 458.78C1743.58 458.99 1743.48 459.282 1743.48 459.655C1743.48 460.002 1743.58 460.28 1743.78 460.489C1743.98 460.699 1744.35 460.913 1744.9 461.132C1745.44 461.351 1745.89 461.558 1746.24 461.754C1746.59 461.945 1746.89 462.164 1747.13 462.41C1747.37 462.652 1747.56 462.93 1747.69 463.244C1747.81 463.554 1747.88 463.916 1747.88 464.331C1747.88 465.106 1747.64 465.735 1747.15 466.218C1746.67 466.701 1746 466.986 1745.16 467.072V468.433H1744.07V467.079C1743.14 466.979 1742.41 466.648 1741.9 466.088C1741.39 465.523 1741.13 464.773 1741.13 463.839H1743.11C1743.11 464.381 1743.23 464.798 1743.49 465.09C1743.75 465.377 1744.12 465.521 1744.6 465.521C1745 465.521 1745.32 465.416 1745.55 465.206C1745.79 464.992 1745.9 464.705 1745.9 464.345ZM1755.06 463.217H1756.19V464.81H1755.06V466.963H1753.09V464.81H1749L1748.92 463.565L1753.07 457.01H1755.06V463.217ZM1750.88 463.217H1753.09V459.703L1752.96 459.929L1750.88 463.217ZM1757.55 462.068L1758.12 457.01H1763.7V458.657H1759.74L1759.5 460.797C1759.97 460.546 1760.47 460.421 1761 460.421C1761.94 460.421 1762.69 460.715 1763.22 461.303C1763.76 461.891 1764.03 462.713 1764.03 463.771C1764.03 464.413 1763.89 464.99 1763.62 465.5C1763.35 466.006 1762.96 466.4 1762.46 466.683C1761.95 466.961 1761.36 467.1 1760.67 467.1C1760.07 467.1 1759.51 466.979 1758.99 466.737C1758.48 466.491 1758.07 466.147 1757.77 465.705C1757.47 465.263 1757.32 464.759 1757.3 464.194H1759.25C1759.29 464.609 1759.44 464.933 1759.68 465.165C1759.93 465.393 1760.26 465.507 1760.66 465.507C1761.11 465.507 1761.45 465.347 1761.69 465.028C1761.93 464.705 1762.05 464.249 1762.05 463.661C1762.05 463.096 1761.92 462.663 1761.64 462.362C1761.36 462.062 1760.97 461.911 1760.46 461.911C1759.99 461.911 1759.61 462.034 1759.31 462.28L1759.12 462.458L1757.55 462.068ZM1771.99 462.848C1771.99 464.224 1771.71 465.277 1771.14 466.006C1770.57 466.735 1769.74 467.1 1768.64 467.1C1767.55 467.1 1766.72 466.742 1766.15 466.026C1765.58 465.311 1765.28 464.285 1765.27 462.95V461.118C1765.27 459.728 1765.55 458.673 1766.13 457.953C1766.71 457.233 1767.54 456.873 1768.62 456.873C1769.71 456.873 1770.54 457.231 1771.11 457.946C1771.69 458.657 1771.98 459.68 1771.99 461.016V462.848ZM1770.02 460.838C1770.02 460.013 1769.9 459.414 1769.68 459.04C1769.45 458.662 1769.1 458.473 1768.62 458.473C1768.16 458.473 1767.82 458.653 1767.59 459.013C1767.37 459.368 1767.26 459.926 1767.24 460.688V463.107C1767.24 463.919 1767.35 464.522 1767.57 464.919C1767.79 465.311 1768.15 465.507 1768.64 465.507C1769.12 465.507 1769.47 465.318 1769.68 464.939C1769.9 464.561 1770.01 463.982 1770.02 463.203V460.838Z" fill="#89969F"/>
<rect x="1733" y="475" width="48" height="3" rx="1" fill="#B8C5D0"/>
<rect x="1739" y="481" width="36" height="3" rx="1" fill="#B8C5D0"/>
<rect x="1741" y="487" width="33" height="3" rx="1" fill="#B8C5D0"/>
<path d="M1757 528C1765.28 528 1772 521.284 1772 513C1772 504.716 1765.28 498 1757 498C1748.72 498 1742 504.716 1742 513C1742 521.284 1748.72 528 1757 528Z" fill="#89969F"/>
<path fill-rule="evenodd" clip-rule="evenodd" d="M1755.58 518.51L1755.56 518.53L1751 513.71L1753.37 511.21L1755.94 513.92L1761.55 508L1763.07 509.61V509.85H1763.3L1764 510.59L1756.04 519L1755.58 518.51Z" fill="#B8C5D0"/>
<rect x="1137" y="611" width="120" height="150" rx="4" fill="#B8C5D0"/>
<path fill-rule="evenodd" clip-rule="evenodd" d="M1145 627H1249C1251.21 627 1253 628.791 1253 631V753C1253 755.209 1251.21 757 1249 757H1145C1142.79 757 1141 755.209 1141 753V631C1141 628.791 1142.79 627 1145 627ZM1143 617C1144.1 617 1145 617.895 1145 619C1145 620.105 1144.1 621 1143 621C1141.9 621 1141 620.105 1141 619C1141 617.897 1141.9 617.003 1143 617V617ZM1149 617C1150.1 617 1151 617.895 1151 619C1151 620.105 1150.1 621 1149 621C1147.9 621 1147 620.105 1147 619C1147 617.897 1147.9 617.003 1149 617V617ZM1155 617C1156.1 617 1157 617.895 1157 619C1157 620.105 1156.1 621 1155 621C1153.9 621 1153 620.105 1153 619C1153 617.897 1153.9 617.003 1155 617V617Z" fill="#F6F8F9"/>
<rect x="1143" y="639" width="108" height="18" rx="1" fill="#DEE7EE"/>
<rect x="1146" y="642" width="12" height="12" rx="4" fill="#89969F"/>
<rect x="1164" y="644" width="31" height="3" rx="1" fill="#89969F"/>
<rect x="1164" y="649" width="20" height="3" rx="1" fill="#B8C5D0"/>
<rect x="1187" y="649" width="12" height="3" rx="1" fill="#B8C5D0"/>
<rect x="1202" y="649" width="9" height="3" rx="1" fill="#B8C5D0"/>
<path fill-rule="evenodd" clip-rule="evenodd" d="M1239.46 651.54C1237.51 649.585 1237.51 646.415 1239.46 644.461C1241.42 642.506 1244.58 642.506 1246.54 644.461C1248.49 646.415 1248.49 649.585 1246.54 651.54C1244.58 653.49 1241.42 653.49 1239.46 651.54V651.54ZM1241.67 650.21L1240.79 649.33L1242.12 648L1240.79 646.67L1241.67 645.79L1243 647.12L1244.33 645.79L1245.21 646.67L1243.88 648L1245.21 649.33L1244.33 650.21L1243 648.88L1241.67 650.21Z" fill="#B8C5D0"/>
<rect x="1143" y="658" width="108" height="18" rx="1" fill="#DEE7EE"/>
<rect x="1146" y="661" width="12" height="12" rx="4" fill="#89969F"/>
<rect x="1164" y="663" width="31" height="3" rx="1" fill="#89969F"/>
<rect x="1164" y="668" width="20" height="3" rx="1" fill="#B8C5D0"/>
<rect x="1187" y="668" width="12" height="3" rx="1" fill="#B8C5D0"/>
<rect x="1202" y="668" width="9" height="3" rx="1" fill="#B8C5D0"/>
<path fill-rule="evenodd" clip-rule="evenodd" d="M1239.46 670.54C1237.51 668.585 1237.51 665.415 1239.46 663.461C1241.42 661.506 1244.58 661.506 1246.54 663.461C1248.49 665.415 1248.49 668.585 1246.54 670.54C1244.58 672.49 1241.42 672.49 1239.46 670.54ZM1241.67 669.21L1240.79 668.33L1242.12 667L1240.79 665.67L1241.67 664.79L1243 666.12L1244.33 664.79L1245.21 665.67L1243.88 667L1245.21 668.33L1244.33 669.21L1243 667.88L1241.67 669.21Z" fill="#B8C5D0"/>
<rect x="1143" y="677" width="108" height="18" rx="1" fill="#DEE7EE"/>
<rect x="1146" y="680" width="12" height="12" rx="4" fill="#89969F"/>
<rect x="1164" y="682" width="31" height="3" rx="1" fill="#89969F"/>
<rect x="1164" y="687" width="20" height="3" rx="1" fill="#B8C5D0"/>
<rect x="1187" y="687" width="12" height="3" rx="1" fill="#B8C5D0"/>
<rect x="1202" y="687" width="9" height="3" rx="1" fill="#B8C5D0"/>
<path fill-rule="evenodd" clip-rule="evenodd" d="M1239.46 689.54C1237.51 687.585 1237.51 684.415 1239.46 682.461C1241.42 680.506 1244.58 680.506 1246.54 682.461C1248.49 684.415 1248.49 687.585 1246.54 689.54C1244.58 691.49 1241.42 691.49 1239.46 689.54ZM1241.67 688.21L1240.79 687.33L1242.12 686L1240.79 684.67L1241.67 683.79L1243 685.12L1244.33 683.79L1245.21 684.67L1243.88 686L1245.21 687.33L1244.33 688.21L1243 686.88L1241.67 688.21Z" fill="#B8C5D0"/>
<rect x="1143" y="696" width="108" height="18" rx="1" fill="#DEE7EE"/>
<rect x="1146" y="699" width="12" height="12" rx="4" fill="#89969F"/>
<rect x="1164" y="701" width="31" height="3" rx="1" fill="#89969F"/>
<rect x="1164" y="706" width="20" height="3" rx="1" fill="#B8C5D0"/>
<rect x="1187" y="706" width="12" height="3" rx="1" fill="#B8C5D0"/>
<rect x="1202" y="706" width="9" height="3" rx="1" fill="#B8C5D0"/>
<path fill-rule="evenodd" clip-rule="evenodd" d="M1239.46 708.54C1237.51 706.585 1237.51 703.415 1239.46 701.461C1241.42 699.506 1244.58 699.506 1246.54 701.461C1248.49 703.415 1248.49 706.585 1246.54 708.54C1244.58 710.49 1241.42 710.49 1239.46 708.54ZM1241.67 707.21L1240.79 706.33L1242.12 705L1240.79 703.67L1241.67 702.79L1243 704.12L1244.33 702.79L1245.21 703.67L1243.88 705L1245.21 706.33L1244.33 707.21L1243 705.88L1241.67 707.21Z" fill="#B8C5D0"/>
<rect x="1143" y="715" width="108" height="18" rx="1" fill="#DEE7EE"/>
<rect x="1146" y="718" width="12" height="12" rx="4" fill="#89969F"/>
<rect x="1164" y="720" width="31" height="3" rx="1" fill="#89969F"/>
<rect x="1164" y="725" width="20" height="3" rx="1" fill="#B8C5D0"/>
<rect x="1187" y="725" width="12" height="3" rx="1" fill="#B8C5D0"/>
<rect x="1202" y="725" width="9" height="3" rx="1" fill="#B8C5D0"/>
<path fill-rule="evenodd" clip-rule="evenodd" d="M1239.46 727.54C1237.51 725.585 1237.51 722.415 1239.46 720.461C1241.42 718.506 1244.58 718.506 1246.54 720.461C1248.49 722.415 1248.49 725.585 1246.54 727.54C1244.58 729.49 1241.42 729.49 1239.46 727.54ZM1241.67 726.21L1240.79 725.33L1242.12 724L1240.79 722.67L1241.67 721.79L1243 723.12L1244.33 721.79L1245.21 722.67L1243.88 724L1245.21 725.33L1244.33 726.21L1243 724.88L1241.67 726.21Z" fill="#B8C5D0"/>
<rect x="1229" y="738" width="22" height="7" rx="1" fill="#89969F"/>
<rect y="413" width="120" height="150" rx="4" fill="#B8C5D0"/>
<path fill-rule="evenodd" clip-rule="evenodd" d="M8 429H112C114.209 429 116 430.791 116 433V555C116 557.209 114.209 559 112 559H8C5.79086 559 4 557.209 4 555V433C4 430.791 5.79086 429 8 429ZM6 419C7.10457 419 8 419.895 8 421C8 422.105 7.10457 423 6 423C4.89543 423 4 422.105 4 421C4 419.895 4.89543 419 6 419ZM12 419C13.1046 419 14 419.895 14 421C14 422.105 13.1046 423 12 423C10.8954 423 10 422.105 10 421C10 419.895 10.8954 419 12 419ZM18 419C19.1046 419 20 419.895 20 421C20 422.105 19.1046 423 18 423C16.8954 423 16 422.105 16 421C16 419.895 16.8954 419 18 419Z" fill="#F6F8F9"/>
<rect x="44" y="472" width="33" height="53" rx="4" fill="#DEE7EE"/>
<rect opacity="0.7" x="39" y="467" width="43" height="53" rx="4" fill="#B8C5D0"/>
<rect x="34" y="462" width="53" height="53" rx="4" fill="#B8C5D0"/>
<path fill-rule="evenodd" clip-rule="evenodd" d="M61 479C55.4772 479 51 483.477 51 489C51 494.523 55.4772 499 61 499C66.5228 499 71 494.523 71 489C71 483.477 66.5228 479 61 479ZM57.667 484L66 489L57.667 494V484Z" fill="#89969F"/>
<path d="M140 491H190C195.523 491 200 495.477 200 501V683C200 688.523 204.477 693 210 693H258.5" stroke="#89969F"/>
<path fill-rule="evenodd" clip-rule="evenodd" d="M257 696V690L260 693L257 696Z" fill="#89969F"/>
<path d="M997 488H1047C1052.52 488 1057 492.477 1057 498V680C1057 685.523 1061.48 690 1067 690H1115.5" stroke="#89969F"/>
<path fill-rule="evenodd" clip-rule="evenodd" d="M1114 693V687L1117 690L1114 693Z" fill="#89969F"/>
<rect x="284" y="621" width="120" height="150" rx="4" fill="#B8C5D0"/>
<path fill-rule="evenodd" clip-rule="evenodd" d="M292 637H396C398.209 637 400 638.791 400 641V763C400 765.209 398.209 767 396 767H292C289.791 767 288 765.209 288 763V641C288 638.791 289.791 637 292 637ZM290 627C291.105 627 292 627.895 292 629C292 630.105 291.105 631 290 631C288.895 631 288 630.105 288 629C288 627.895 288.895 627 290 627ZM296 627C297.105 627 298 627.895 298 629C298 630.105 297.105 631 296 631C294.895 631 294 630.105 294 629C294 627.895 294.895 627 296 627ZM302 627C303.105 627 304 627.895 304 629C304 630.105 303.105 631 302 631C300.895 631 300 630.105 300 629C300 627.895 300.895 627 302 627Z" fill="#F6F8F9"/>
<rect x="330" y="661" width="28" height="3" rx="1" fill="#89969F"/>
<rect x="317" y="676" width="54" height="6" rx="1" fill="#B8C5D0"/>
<rect x="317" y="688" width="54" height="6" rx="1" fill="#B8C5D0"/>
<rect x="317" y="700" width="54" height="6" rx="1" fill="#B8C5D0"/>
<rect x="317" y="712" width="54" height="6" rx="1" fill="#B8C5D0"/>
<rect x="317" y="724" width="54" height="6" rx="1" fill="#B8C5D0"/>
<rect x="349" y="736" width="22" height="7" rx="1" fill="#89969F"/>
</svg>
